HIERARCHY
ROOT newVegas:Hips
{
	OFFSET 0.000000 96.479958 0.000000
	CHANNELS 6 Xposition Yposition Zposition Xrotation Yrotation Zrotation
	JOINT newVegas:Pelvis
	{
		OFFSET 0.000000 0.000000 0.000000
		CHANNELS 3 Xrotation Yrotation Zrotation
		JOINT newVegas:LeftUpLeg
		{
			OFFSET 18.735201 -5.666702 -4.541200
			CHANNELS 3 Xrotation Yrotation Zrotation
			JOINT newVegas:LeftLeg
			{
				OFFSET -0.021200 -31.938179 0.493100
				CHANNELS 3 Xrotation Yrotation Zrotation
				JOINT newVegas:LeftFoot
				{
					OFFSET 0.021200 -31.938179 -4.336299
					CHANNELS 3 Xrotation Yrotation Zrotation
					JOINT newVegas:LeftToeBase
					{
						OFFSET 0.943001 -26.722000 15.023500
						CHANNELS 3 Xrotation Yrotation Zrotation
						End Site
						{
							OFFSET 0.000000 30.670183 0.000000
						}
					}
				}
				JOINT newVegas:Left_PantLeg
				{
					OFFSET 0.663870 -9.044666 -1.108900
					CHANNELS 3 Xrotation Yrotation Zrotation
					End Site
					{
						OFFSET 1.415995 20.635357 0.000000
					}
				}
			}
		}
		JOINT newVegas:RightUpLeg
		{
			OFFSET -18.735201 -5.666702 -4.541200
			CHANNELS 3 Xrotation Yrotation Zrotation
			JOINT newVegas:RightLeg
			{
				OFFSET 0.018946 -31.938133 0.493100
				CHANNELS 3 Xrotation Yrotation Zrotation
				JOINT newVegas:RightFoot
				{
					OFFSET -0.018946 -31.938126 -4.336299
					CHANNELS 3 Xrotation Yrotation Zrotation
					JOINT newVegas:RightToeBase
					{
						OFFSET -0.943001 -26.722004 15.023500
						CHANNELS 3 Xrotation Yrotation Zrotation
						End Site
						{
							OFFSET 0.000000 30.670187 0.000000
						}
					}
				}
				JOINT newVegas:Right_PantLeg
				{
					OFFSET -0.661674 -9.044716 -1.108900
					CHANNELS 3 Xrotation Yrotation Zrotation
					End Site
					{
						OFFSET -1.415958 20.635269 0.000000
					}
				}
			}
		}
	}
	JOINT newVegas:Spine
	{
		OFFSET 0.000000 10.199997 -0.299500
		CHANNELS 3 Xrotation Yrotation Zrotation
		JOINT newVegas:Spine1
		{
			OFFSET 0.000000 11.900002 -1.516600
			CHANNELS 3 Xrotation Yrotation Zrotation
			JOINT newVegas:Spine2
			{
				OFFSET 0.000000 13.600006 -2.842500
				CHANNELS 3 Xrotation Yrotation Zrotation
				JOINT newVegas:Neck
				{
					OFFSET 0.000000 9.624100 -2.890100
					CHANNELS 3 Xrotation Yrotation Zrotation
					JOINT newVegas:Head
					{
						OFFSET 0.000000 14.068802 -1.351900
						CHANNELS 3 Xrotation Yrotation Zrotation
						JOINT newVegas:Hair_Back
						{
							OFFSET 0.000000 3.231903 -17.524799
							CHANNELS 3 Xrotation Yrotation Zrotation
							End Site
							{
								OFFSET 0.000000 19.849884 0.000000
							}
						}
						JOINT newVegas:Hair_Front
						{
							OFFSET 0.000000 31.260406 4.573800
							CHANNELS 3 Xrotation Yrotation Zrotation
							JOINT newVegas:Hair_Front1
							{
								OFFSET 0.000000 2.284103 11.993300
								CHANNELS 3 Xrotation Yrotation Zrotation
								JOINT newVegas:Hair_Front2
								{
									OFFSET 0.000000 2.284103 11.993300
									CHANNELS 3 Xrotation Yrotation Zrotation
									End Site
									{
										OFFSET 0.000000 12.208862 0.000000
									}
								}
							}
						}
						JOINT newVegas:Jowel
						{
							OFFSET 0.000000 -7.458206 6.864100
							CHANNELS 3 Xrotation Yrotation Zrotation
							End Site
							{
								OFFSET 0.000000 19.849884 0.000000
							}
						}
					}
				}
				JOINT newVegas:LeftShoulder
				{
					OFFSET 15.263000 10.923401 -0.547700
					CHANNELS 3 Xrotation Yrotation Zrotation
					JOINT newVegas:LeftArm
					{
						OFFSET 25.438599 -2.830597 -13.032500
						CHANNELS 3 Xrotation Yrotation Zrotation
						JOINT newVegas:LeftForeArm
						{
							OFFSET 29.960503 0.000000 0.000000
							CHANNELS 3 Xrotation Yrotation Zrotation
							JOINT newVegas:LeftHand
							{
								OFFSET 27.849251 0.000000 0.000000
								CHANNELS 3 Xrotation Yrotation Zrotation
								JOINT newVegas:LeftHandThumb1
								{
									OFFSET 4.487587 -3.305161 6.305391
									CHANNELS 3 Xrotation Yrotation Zrotation
									JOINT newVegas:LeftHandThumb2
									{
										OFFSET 5.480453 -3.164139 3.164143
										CHANNELS 3 Xrotation Yrotation Zrotation
										JOINT newVegas:LeftHandThumb3
										{
											OFFSET 5.159721 -2.978973 2.978967
											CHANNELS 3 Xrotation Yrotation Zrotation
											End Site
											{
												OFFSET 2.494507 5.926697 1.738678
											}
										}
									}
								}
								JOINT newVegas:LeftHandIndex1
								{
									OFFSET 18.578728 -0.527832 5.208049
									CHANNELS 3 Xrotation Yrotation Zrotation
									JOINT newVegas:LeftHandIndex2
									{
										OFFSET 3.192009 0.000000 0.000000
										CHANNELS 3 Xrotation Yrotation Zrotation
										JOINT newVegas:LeftHandIndex3
										{
											OFFSET 3.835129 0.000000 0.000000
											CHANNELS 3 Xrotation Yrotation Zrotation
											End Site
											{
												OFFSET -0.034599 3.816971 0.371180
											}
										}
									}
								}
								JOINT newVegas:LeftHandMiddle1
								{
									OFFSET 18.476105 0.000000 0.000000
									CHANNELS 3 Xrotation Yrotation Zrotation
									JOINT newVegas:LeftHandMiddle2
									{
										OFFSET 3.324875 0.000000 0.000000
										CHANNELS 3 Xrotation Yrotation Zrotation
										JOINT newVegas:LeftHandMiddle3
										{
											OFFSET 4.596550 0.000000 0.000000
											CHANNELS 3 Xrotation Yrotation Zrotation
											End Site
											{
												OFFSET 0.057701 4.578827 0.399218
											}
										}
									}
								}
								JOINT newVegas:LeftHandRing1
								{
									OFFSET 17.732719 0.121887 -4.201567
									CHANNELS 3 Xrotation Yrotation Zrotation
									JOINT newVegas:LeftHandRing2
									{
										OFFSET 2.733170 0.000000 0.000000
										CHANNELS 3 Xrotation Yrotation Zrotation
										JOINT newVegas:LeftHandRing3
										{
											OFFSET 3.178268 0.000000 0.000000
											CHANNELS 3 Xrotation Yrotation Zrotation
											End Site
											{
												OFFSET 0.119102 3.170624 0.185394
											}
										}
									}
								}
								JOINT newVegas:LeftHandPinky1
								{
									OFFSET 15.989624 -0.606689 -7.535461
									CHANNELS 3 Xrotation Yrotation Zrotation
									JOINT newVegas:LeftHandPinky2
									{
										OFFSET 2.538986 0.000000 0.000000
										CHANNELS 3 Xrotation Yrotation Zrotation
										JOINT newVegas:LeftHandPinky3
										{
											OFFSET 2.593102 0.000000 0.000000
											CHANNELS 3 Xrotation Yrotation Zrotation
											End Site
											{
												OFFSET -0.150902 2.584198 0.152708
											}
										}
									}
								}
							}
							JOINT newVegas:Left_Sleeve
							{
								OFFSET 0.267448 -0.649796 0.577675
								CHANNELS 3 Xrotation Yrotation Zrotation
								End Site
								{
									OFFSET 0.000000 15.991241 0.000000
								}
							}
							JOINT newVegas:Left_CapeC
							{
								OFFSET 15.715958 -8.608795 -6.935905
								CHANNELS 3 Xrotation Yrotation Zrotation
								JOINT newVegas:Left_CapeC1
								{
									OFFSET 0.000000 -8.688499 0.000000
									CHANNELS 3 Xrotation Yrotation Zrotation
									End Site
									{
										OFFSET 0.000000 8.688499 0.000000
									}
								}
							}
						}
						JOINT newVegas:Left_CapeB
						{
							OFFSET 26.118385 -8.608795 -7.079235
							CHANNELS 3 Xrotation Yrotation Zrotation
							JOINT newVegas:Left_CapeB1
							{
								OFFSET 0.000000 -8.688499 0.000000
								CHANNELS 3 Xrotation Yrotation Zrotation
								End Site
								{
									OFFSET 0.000000 8.688499 0.000000
								}
							}
						}
						JOINT newVegas:Left_CapeA
						{
							OFFSET 5.115639 -8.608795 -10.395809
							CHANNELS 3 Xrotation Yrotation Zrotation
							JOINT newVegas:Left_CapeA1
							{
								OFFSET 0.000000 -8.688499 0.000000
								CHANNELS 3 Xrotation Yrotation Zrotation
								End Site
								{
									OFFSET 0.000000 8.688499 0.000000
								}
							}
						}
					}
				}
				JOINT newVegas:RightShoulder
				{
					OFFSET -15.263000 10.923401 -0.547700
					CHANNELS 3 Xrotation Yrotation Zrotation
					JOINT newVegas:RightArm
					{
						OFFSET -25.438599 -2.830597 -13.032500
						CHANNELS 3 Xrotation Yrotation Zrotation
						JOINT newVegas:RightForeArm
						{
							OFFSET -29.960503 0.000000 0.000000
							CHANNELS 3 Xrotation Yrotation Zrotation
							JOINT newVegas:RightHand
							{
								OFFSET -27.849251 0.000000 0.000000
								CHANNELS 3 Xrotation Yrotation Zrotation
								JOINT newVegas:RightHandThumb1
								{
									OFFSET -4.487587 -3.305161 6.305391
									CHANNELS 3 Xrotation Yrotation Zrotation
									JOINT newVegas:RightHandThumb2
									{
										OFFSET -5.480453 -3.164139 3.164143
										CHANNELS 3 Xrotation Yrotation Zrotation
										JOINT newVegas:RightHandThumb3
										{
											OFFSET -5.159721 -2.978973 2.978967
											CHANNELS 3 Xrotation Yrotation Zrotation
											End Site
											{
												OFFSET -2.494507 5.926697 1.738678
											}
										}
									}
								}
								JOINT newVegas:RightHandIndex1
								{
									OFFSET -18.578728 -0.527832 5.208049
									CHANNELS 3 Xrotation Yrotation Zrotation
									JOINT newVegas:RightHandIndex2
									{
										OFFSET -3.192009 0.000000 0.000000
										CHANNELS 3 Xrotation Yrotation Zrotation
										JOINT newVegas:RightHandIndex3
										{
											OFFSET -3.835129 0.000000 0.000000
											CHANNELS 3 Xrotation Yrotation Zrotation
											End Site
											{
												OFFSET 0.034599 3.816971 0.371180
											}
										}
									}
								}
								JOINT newVegas:RightHandMiddle1
								{
									OFFSET -18.476105 0.000000 0.000000
									CHANNELS 3 Xrotation Yrotation Zrotation
									JOINT newVegas:RightHandMiddle2
									{
										OFFSET -3.324875 0.000000 0.000000
										CHANNELS 3 Xrotation Yrotation Zrotation
										JOINT newVegas:RightHandMiddle3
										{
											OFFSET -4.596550 0.000000 0.000000
											CHANNELS 3 Xrotation Yrotation Zrotation
											End Site
											{
												OFFSET -0.057701 4.578827 0.399218
											}
										}
									}
								}
								JOINT newVegas:RightHandRing1
								{
									OFFSET -17.732719 0.121887 -4.201567
									CHANNELS 3 Xrotation Yrotation Zrotation
									JOINT newVegas:RightHandRing2
									{
										OFFSET -2.733170 0.000000 0.000000
										CHANNELS 3 Xrotation Yrotation Zrotation
										JOINT newVegas:RightHandRing3
										{
											OFFSET -3.178268 0.000000 0.000000
											CHANNELS 3 Xrotation Yrotation Zrotation
											End Site
											{
												OFFSET -0.119102 3.170624 0.185394
											}
										}
									}
								}
								JOINT newVegas:RightHandPinky1
								{
									OFFSET -15.989624 -0.606689 -7.535461
									CHANNELS 3 Xrotation Yrotation Zrotation
									JOINT newVegas:RightHandPinky2
									{
										OFFSET -2.538986 0.000000 0.000000
										CHANNELS 3 Xrotation Yrotation Zrotation
										JOINT newVegas:RightHandPinky3
										{
											OFFSET -2.593102 0.000000 0.000000
											CHANNELS 3 Xrotation Yrotation Zrotation
											End Site
											{
												OFFSET 0.150902 2.584198 0.152708
											}
										}
									}
								}
							}
							JOINT newVegas:Right_CapeC
							{
								OFFSET -15.715958 -8.608795 -6.935905
								CHANNELS 3 Xrotation Yrotation Zrotation
								JOINT newVegas:Right_CapeC1
								{
									OFFSET 0.000000 -8.688499 0.000000
									CHANNELS 3 Xrotation Yrotation Zrotation
									End Site
									{
										OFFSET 0.000000 8.688499 0.000000
									}
								}
							}
							JOINT newVegas:Right_Sleeve
							{
								OFFSET -0.267448 -0.649994 0.577675
								CHANNELS 3 Xrotation Yrotation Zrotation
								End Site
								{
									OFFSET 0.000000 15.991302 0.000000
								}
							}
						}
						JOINT newVegas:Right_CapeA
						{
							OFFSET -5.115540 -8.608795 -10.395824
							CHANNELS 3 Xrotation Yrotation Zrotation
							JOINT newVegas:Right_CapeA1
							{
								OFFSET 0.000000 -8.688499 0.000000
								CHANNELS 3 Xrotation Yrotation Zrotation
								End Site
								{
									OFFSET 0.000000 8.688499 0.000000
								}
							}
						}
						JOINT newVegas:Right_CapeB
						{
							OFFSET -26.118187 -8.608795 -7.079266
							CHANNELS 3 Xrotation Yrotation Zrotation
							JOINT newVegas:Right_CapeB1
							{
								OFFSET 0.000000 -8.688499 0.000000
								CHANNELS 3 Xrotation Yrotation Zrotation
								End Site
								{
									OFFSET 0.000000 8.688499 0.000000
								}
							}
						}
					}
				}
				JOINT newVegas:Left_Collar
				{
					OFFSET 18.625099 8.655502 8.828100
					CHANNELS 3 Xrotation Yrotation Zrotation
					JOINT newVegas:Left_Collar1
					{
						OFFSET 14.783401 10.540405 -1.259500
						CHANNELS 3 Xrotation Yrotation Zrotation
						End Site
						{
							OFFSET 0.000000 18.199875 0.000000
						}
					}
				}
				JOINT newVegas:Collar_Back
				{
					OFFSET 0.000000 15.630707 -20.132601
					CHANNELS 3 Xrotation Yrotation Zrotation
					End Site
					{
						OFFSET 0.000000 22.523010 0.000000
					}
				}
				JOINT newVegas:Left_Peck
				{
					OFFSET 17.239599 -5.132599 25.482599
					CHANNELS 3 Xrotation Yrotation Zrotation
					End Site
					{
						OFFSET 0.000000 22.523010 0.000000
					}
				}
				JOINT newVegas:Right_Peck
				{
					OFFSET -17.239599 -5.132202 25.482599
					CHANNELS 3 Xrotation Yrotation Zrotation
					End Site
					{
						OFFSET 0.000000 22.523010 0.000000
					}
				}
				JOINT newVegas:Right_Collar
				{
					OFFSET -18.625099 8.655792 8.828100
					CHANNELS 3 Xrotation Yrotation Zrotation
					JOINT newVegas:Right_Collar1
					{
						OFFSET -14.783401 10.539993 -1.259500
						CHANNELS 3 Xrotation Yrotation Zrotation
						End Site
						{
							OFFSET 0.000000 18.199631 0.000000
						}
					}
				}
			}
		}
		JOINT newVegas:Belly
		{
			OFFSET 0.000000 -6.540398 9.014299
			CHANNELS 3 Xrotation Yrotation Zrotation
			End Site
			{
				OFFSET 0.000000 11.566666 0.000000
			}
		}
	}
	JOINT newVegas:ElvisFacialAnim_Joint
	{
		OFFSET 1.000000 -95.330101 -8.825800
		CHANNELS 3 Xrotation Yrotation Zrotation
		End Site
		{
			OFFSET 0.000000 35.315800 0.000000
		}
	}
}
MOTION
Frames: 4
Frame Time: 0.016667
-5.444383 88.756042 1.201581 1.766658 -44.712836 4.562699 -0.000000 -0.000000 0.000000 -28.583493 5.066376 15.874109 17.739567 -9.106349 4.026269 7.899896 -2.688267 -22.026190 0.000000 -0.000001 0.000000 -0.000001 -0.000000 0.000002 -11.325977 -5.137622 -20.046672 32.967745 -10.235244 -9.089899 -16.568707 -8.857559 28.476244 0.000000 -0.000000 0.000000 -0.000003 -0.000003 0.000001 6.688063 0.676755 -0.598580 -0.557036 1.560414 -1.610233 -0.534574 1.560471 -1.609752 -3.824562 0.244816 4.106148 -3.824555 0.244805 4.106142 -0.000000 -0.000003 0.000001 -3.824629 0.244806 4.106148 -3.824418 0.244779 4.106158 0.000001 0.000001 -0.000000 -0.000000 -0.000003 0.000000 -8.631163 -5.317958 -15.297513 0.075345 -2.626984 -31.066825 42.317503 -37.063352 15.465983 -23.800366 3.779286 5.091200 7.895968 12.754514 1.888091 -2.399863 10.098184 -6.912124 0.000002 -0.000003 -0.000005 10.366021 -5.431307 -20.260052 0.012393 0.242554 -14.888680 0.000000 -0.000000 -0.000000 8.099316 -3.521124 -16.129432 0.036836 0.594712 -11.734536 0.000001 0.000001 -0.000001 7.437968 -2.616137 -14.483966 -0.036240 0.187720 -10.043028 0.000001 0.000003 -0.000000 6.501847 -1.624405 -10.619919 -0.001459 0.148111 -9.427966 0.000003 0.000000 -0.000002 -0.000000 -0.000001 0.000004 -0.000000 -0.000001 0.000004 -0.000000 -0.000000 0.000004 -0.000001 0.000000 -0.000002 -0.000000 0.000000 -0.000002 -0.000001 0.000000 -0.000002 -0.000001 0.000000 -0.000002 -0.620556 15.164825 -23.726496 -69.097049 11.570648 13.062490 113.321588 148.813757 -130.632491 -14.646372 20.622250 10.268464 0.299578 -0.474260 0.374515 -3.620667 -7.484567 8.065531 0.000001 0.000002 -0.000002 10.001365 7.473617 21.241246 -0.008300 -0.266176 15.389781 0.000001 0.000001 -0.000002 6.820053 4.437967 24.757426 0.121736 -0.593755 18.466438 0.000000 -0.000000 -0.000001 4.875286 1.716001 32.191918 -0.003217 -0.241531 22.203668 0.000002 -0.000003 0.000001 3.061670 -1.343072 39.368032 0.068267 -0.198031 27.160230 -0.000001 -0.000002 -0.000000 -0.000001 0.000004 -0.000000 0.000002 0.000002 -0.000002 -0.000001 0.000004 -0.000001 0.000003 -0.000001 -0.000000 0.000003 0.000000 0.000000 0.000003 -0.000001 -0.000000 0.000003 -0.000000 0.000000 0.000000 0.000002 -0.000000 0.000000 0.000002 -0.000000 0.000000 0.000002 -0.000000 0.000000 0.000002 -0.000000 0.000000 0.000002 -0.000000 0.000000 0.000002 -0.000000 0.000000 0.000002 -0.000000 -0.000000 0.000000 -0.000000 -0.000000 -0.000000 0.000000 
-4.983932 88.632324 1.076844 1.853286 -45.669356 4.784740 -0.000000 0.000000 -0.000000 -28.769628 5.206677 16.050890 18.559149 -8.412778 3.677911 7.185783 -2.537748 -21.772838 -0.000000 0.000001 0.000000 -0.000000 -0.000003 -0.000002 -12.763720 -4.560029 -20.360977 33.893379 -9.474715 -9.634146 -16.334626 -8.726716 28.724343 -0.000000 -0.000000 -0.000000 -0.000002 -0.000001 -0.000003 6.824343 0.696629 -0.529813 -0.284721 1.586126 -1.496923 -0.262263 1.586192 -1.496445 -3.818199 0.691223 4.035249 -3.818202 0.691256 4.035245 -0.000000 -0.000002 -0.000000 -3.818269 0.691222 4.035246 -3.818033 0.691252 4.035242 -0.000001 0.000001 0.000000 -0.000000 -0.000002 -0.000000 -8.545905 -5.440099 -14.847631 0.040951 -2.007570 -31.692194 42.522514 -37.721188 16.179342 -23.412150 3.306863 4.559607 7.803323 12.376353 1.963669 -2.337373 10.219266 -6.846318 0.000000 -0.000003 -0.000001 10.515338 -5.092612 -20.325960 0.011422 0.243618 -15.207507 0.000001 -0.000001 -0.000002 8.128689 -3.265504 -16.334855 0.039425 0.596847 -12.096709 -0.000000 0.000000 -0.000001 7.412081 -2.391979 -14.908269 -0.036556 0.189999 -10.461719 -0.000000 -0.000001 0.000001 6.330469 -1.420191 -11.092628 0.000935 0.151191 -10.093310 -0.000002 0.000002 -0.000003 0.000001 0.000000 -0.000000 0.000001 0.000000 -0.000000 0.000001 -0.000000 -0.000000 0.000001 -0.000001 -0.000003 0.000002 -0.000002 -0.000003 0.000001 -0.000001 -0.000003 0.000000 0.000000 -0.000002 -1.211229 15.565832 -20.539016 -65.286356 12.486773 13.348860 113.302286 142.450808 -129.003777 -15.346276 19.991257 10.507292 0.841614 -1.185488 0.646263 -3.543950 -7.625426 7.985586 0.000002 -0.000002 -0.000003 10.272593 7.143711 23.988116 -0.006341 -0.268635 17.205525 -0.000000 0.000002 0.000000 6.758865 4.033189 27.064507 0.133522 -0.599026 20.307588 0.000000 -0.000000 0.000001 4.642726 1.320745 34.431762 -0.002019 -0.250333 23.879673 0.000001 0.000001 -0.000001 2.590325 -1.663355 41.407411 0.074432 -0.202422 28.788865 0.000000 -0.000000 -0.000000 0.000000 0.000000 0.000001 -0.000001 0.000001 0.000000 0.000000 -0.000000 0.000001 0.000002 0.000001 0.000001 0.000001 0.000002 0.000002 0.000002 0.000001 0.000001 0.000001 0.000002 0.000002 0.000000 -0.000000 -0.000000 0.000000 -0.000000 -0.000000 0.000000 -0.000000 -0.000000 0.000000 -0.000000 -0.000000 0.000000 -0.000000 -0.000000 0.000000 -0.000000 -0.000000 0.000000 -0.000000 -0.000000 0.000000 0.000003 -0.000001 -0.000000 0.000000 -0.000000 
-4.527173 88.496643 0.950084 1.951956 -46.620679 5.019441 0.000000 -0.000002 0.000000 -29.120604 5.290996 16.233083 19.557934 -7.751535 3.342109 6.614453 -2.421787 -21.529436 -0.000000 0.000001 0.000000 -0.000000 -0.000002 0.000001 -14.200240 -3.946314 -20.657632 34.831964 -8.709035 -10.121350 -16.118148 -8.579895 28.929898 0.000000 0.000002 0.000000 0.000002 0.000000 -0.000001 6.981986 0.712390 -0.475092 0.030504 1.602067 -1.410632 0.052969 1.602121 -1.410150 -3.833405 1.122127 3.952759 -3.833368 1.122116 3.952797 0.000000 -0.000002 -0.000000 -3.833317 1.122204 3.952773 -3.833365 1.121844 3.952837 -0.000000 0.000001 -0.000000 0.000000 -0.000002 -0.000000 -8.451881 -5.621947 -14.376199 -0.075749 -1.533863 -32.297929 42.235363 -38.238572 16.524089 -22.717018 2.721501 4.212284 7.702768 11.981686 2.047346 -2.271937 10.346036 -6.777514 -0.000000 -0.000000 -0.000003 10.666660 -4.778037 -20.352536 0.010613 0.244535 -15.498652 0.000000 -0.000001 -0.000001 8.160061 -3.018675 -16.524656 0.041918 0.599027 -12.447955 -0.000000 -0.000000 -0.000000 7.387556 -2.161936 -15.340873 -0.036747 0.192292 -10.886789 0.000001 -0.000001 0.000002 6.154514 -1.190099 -11.592645 0.003678 0.154454 -10.790903 0.000000 0.000002 -0.000003 0.000001 -0.000001 0.000002 0.000001 -0.000001 0.000002 0.000001 -0.000001 0.000002 0.000002 0.000001 -0.000002 0.000002 -0.000000 -0.000003 0.000002 0.000001 -0.000002 0.000001 0.000001 -0.000001 -1.838005 15.913856 -17.234360 -61.208597 13.459269 13.486393 111.295549 139.193477 -126.470146 -13.055770 19.376693 10.856547 1.302497 -1.793403 0.752527 -3.461117 -7.778549 7.899728 -0.000003 0.000001 -0.000004 10.560510 6.834442 26.258664 -0.005035 -0.270963 18.813688 0.000001 0.000001 0.000001 6.734495 3.630436 28.949248 0.144538 -0.603048 21.917392 -0.000001 -0.000000 -0.000001 4.449676 0.905871 36.260347 -0.000544 -0.257384 25.307374 0.000001 -0.000004 -0.000001 2.154141 -2.026325 43.046731 0.080088 -0.205643 30.188186 -0.000001 0.000003 0.000001 0.000001 0.000000 0.000000 0.000001 -0.000002 0.000003 0.000001 -0.000000 -0.000000 0.000002 0.000000 -0.000000 0.000001 0.000001 0.000001 0.000002 0.000000 -0.000000 0.000001 0.000001 0.000001 0.000000 -0.000003 0.000000 0.000000 -0.000003 0.000000 0.000000 -0.000003 0.000000 0.000000 -0.000003 0.000000 0.000000 -0.000003 0.000000 0.000000 -0.000003 0.000000 0.000000 -0.000003 0.000000 -0.000000 0.000002 -0.000000 0.000000 -0.000002 0.000000 
-4.076881 88.342163 0.829974 2.063643 -47.557911 5.262764 -0.000000 -0.000004 -0.000000 -29.635248 5.328513 16.421375 20.763562 -7.114845 3.014413 6.114323 -2.345328 -21.260096 -0.000000 0.000000 0.000000 -0.000002 -0.000003 -0.000001 -15.666613 -3.336823 -21.039221 35.854484 -7.875732 -10.393323 -15.965764 -8.398566 29.015453 0.000000 0.000002 0.000000 0.000001 0.000001 0.000000 7.157599 0.728328 -0.426644 0.381789 1.616023 -1.339483 0.404245 1.616073 -1.339003 -3.856090 1.532890 3.853932 -3.856077 1.532887 3.853933 0.000000 -0.000000 -0.000000 -3.855958 1.532898 3.853926 -3.856117 1.532931 3.853930 -0.000000 -0.000000 -0.000000 0.000000 -0.000000 -0.000000 -8.350765 -5.895220 -13.889793 -0.307272 -1.191907 -32.855536 41.504874 -38.584640 16.501869 -21.860770 2.062547 4.067434 7.595167 11.572944 2.139291 -2.203558 10.479056 -6.705556 0.000002 -0.000000 -0.000003 10.817053 -4.496421 -20.333360 0.009953 0.245478 -15.754665 -0.000000 -0.000001 -0.000002 8.192544 -2.786698 -16.693611 0.044387 0.601072 -12.787670 -0.000000 -0.000001 -0.000002 7.364244 -1.930056 -15.779279 -0.036710 0.194737 -11.318099 0.000001 -0.000001 0.000000 5.974177 -0.935459 -12.117722 0.006730 0.157886 -11.523796 -0.000001 -0.000001 -0.000002 -0.000001 -0.000000 -0.000004 -0.000001 -0.000000 -0.000004 -0.000001 -0.000001 -0.000004 0.000002 -0.000001 -0.000001 0.000002 -0.000002 -0.000002 0.000002 -0.000001 -0.000001 0.000001 -0.000001 -0.000000 -2.473712 16.306112 -13.905137 -56.841268 14.356180 13.304794 109.584327 135.172285 -124.529361 -12.518415 18.763441 11.455894 1.709471 -2.341667 0.715100 -3.375394 -7.937557 7.810759 0.000000 -0.000003 -0.000001 10.848335 6.547865 27.989736 -0.004347 -0.273183 20.162280 -0.000000 0.000004 0.000000 6.739382 3.239581 30.352305 0.154408 -0.605469 23.251900 -0.000001 0.000002 -0.000000 4.297155 0.478155 37.613647 0.001107 -0.262413 26.447630 -0.000001 0.000002 -0.000000 1.767426 -2.429481 44.218371 0.085100 -0.207499 31.316373 -0.000002 0.000002 0.000000 0.000002 -0.000001 -0.000000 0.000002 -0.000000 0.000003 0.000002 -0.000001 0.000002 -0.000001 0.000001 -0.000002 -0.000001 0.000000 -0.000002 -0.000001 0.000001 -0.000002 -0.000001 -0.000000 -0.000002 0.000000 0.000001 -0.000000 0.000000 0.000001 -0.000000 0.000000 0.000001 -0.000000 0.000000 0.000001 -0.000000 0.000000 0.000001 -0.000000 0.000000 0.000001 -0.000000 0.000000 0.000001 -0.000000 -0.000000 -0.000001 -0.000000 -0.000000 -0.000004 -0.000000 
